# xmcd
#
# Track frame offsets:
#	150
#	13805
#	44357
#	71542
#	108052
#	138737
#	165855
#
# Disc length: 2696 seconds
#
# Revision: 0
# Processed by: cddbd v1.5.1PL0 Copyright (c) Steve Scherf et al.
# Submitted via: dBpowerAMP V4.0
#
DISCID=540a8607
DTITLE=Stiefbrüder - Zauberstab
DYEAR=1900
DGENRE=
TTITLE0=Airplay
TTITLE1=dustin duval #1
TTITLE2=PIT vs Thunderpussy
TTITLE3=Chics uk Club mix
TTITLE4=Dustin Duval #1 Gb
TTITLE5=PIT vs Thunderpussy Gb
TTITLE6=Chics Uk Clubmix Gb
EXTD=
EXTT0=
EXTT1=
EXTT2=
EXTT3=
EXTT4=
EXTT5=
EXTT6=
PLAYORDER=
